# xmcd CD database file
#
# Track frame offsets:
#	150
#	11444
#	25931
#	35709
#	50862
#	62321
#	74968
#	84853
#	96908
#	109267
#	120987
#	132070
#	142125
#	153708
#
# Disc length: 2179 seconds
#
# Revision: 4
# Processed by: cddbd v1.5.2PL0 Copyright (c) Steve Scherf et al.
# Submitted via: CDex 1.70beta2
#
DISCID=c508810e
DTITLE=Kenny Rogers and Dolly Parton - Kenny and Dolly made in E.U. CD 1
DYEAR=2011
DGENRE=Country
TTITLE0=Dumb blonde ( 1967 ) - Dolly Parton
TTITLE1=Sunshine ( 1969 ) - Kenny Rogers and The First Edition
TTITLE2=Something fishy ( 1967 ) - Dolly Parton
TTITLE3=Just dropped in (to see what condition my condition was in) ( 1967 ) - Kenny Rogers and The First Edition
TTITLE4=Making believe ( 1963 ) - Dolly Parton
TTITLE5=Reuben James ( 1969 ) - Kenny Rogers and The First Edition
TTITLE6=Girl left alone ( 1959 ) - Dolly Parton
TTITLE7=What am I gonna do ( 1970 ) - Kenny Rogers and The First Edition
TTITLE8=As Long As I Live ( 1970 ) - Dolly Parton
TTITLE9=Girl get a hold of yourself ( 1969 ) - Kenny Rogers and The First Edition
TTITLE10=I couldn't wait forever ( 1970 ) - Dolly Parton
TTITLE11=New design ( 1969 ) - Kenny Rogers and The First Edition
TTITLE12=I'm not worth the tears ( 1968 ) - Dolly Parton
TTITLE13=Once again she's all alone ( 1969 ) - Kenny Rogers and The First Edition
EXTD=YEAR: 2011
EXTT0=
EXTT1=
EXTT2=
EXTT3=
EXTT4=
EXTT5=
EXTT6=
EXTT7=
EXTT8=
EXTT9=
EXTT10=
EXTT11=
EXTT12=
EXTT13=
PLAYORDER=
